<svg width="903" height="185" viewBox="0 0 903 185" fill="none" xmlns="http://www.w3.org/2000/svg">
<path d="M320.839 132.98H303.119L295.02 117.239L275.652 79.4636L256.285 117.239L248.186 132.98H230.466L238.565 117.239L275.652 44.8351L312.74 117.239L320.839 132.98Z" fill="#3F7EBA"/>
<path d="M399.955 117.369L408.054 133.109H390.334L382.234 117.369L373.755 100.871L373.374 100.114C370.591 95.5828 365.65 92.5601 359.959 92.5601H344.136V133.104H328.313V44.9646H384.262C390.844 44.9646 396.791 47.6088 401.096 51.8913C405.401 56.2983 408.059 62.2191 408.059 68.7673C408.059 78.3382 402.362 86.6493 394.133 90.4288C391.981 91.4347 389.703 92.0672 387.3 92.3161L399.96 117.374L399.955 117.369ZM384.257 76.8194C385.398 76.8194 386.534 76.5655 387.546 76.0625C390.459 74.8027 392.356 71.9095 392.356 68.7574C392.356 65.8592 390.839 63.8474 389.953 62.9661C388.942 61.9602 387.04 60.7003 384.257 60.7003H344.131V76.9439L384.257 76.8194Z" fill="#3F7EBA"/>
<path d="M436.667 88.91C436.667 104.526 449.451 117.244 465.149 117.244H493.632V100.373H465.149V84.6325H509.455V132.985H465.149C440.721 132.985 420.844 113.216 420.844 88.91C420.844 64.6043 440.716 44.8401 465.149 44.8401H509.455V60.5808H465.149C449.451 60.5808 436.667 73.2988 436.667 88.915V88.91Z" fill="#3F7EBA"/>
<path d="M537.932 68.6329V76.8194H594.893V92.5601H537.932V109.182C537.932 113.589 541.602 117.239 546.032 117.239H610.716V132.98H546.032C532.867 132.98 522.234 122.279 522.234 109.182V68.6379C522.234 55.5414 532.867 44.8401 546.032 44.8401H610.716V60.5808H546.032C541.602 60.5808 537.932 64.2309 537.932 68.6379V68.6329Z" fill="#3F7EBA"/>
<path d="M711.987 44.9646V133.109L696.163 121.019L639.203 77.3223V133.104H623.38V45.2135L639.203 57.3041L696.163 101.001V44.8351L711.987 44.9596V44.9646Z" fill="#3F7EBA"/>
<path d="M813.127 44.9646V60.7053H776.801V133.109H760.978V60.7003H724.651V44.9596H813.132L813.127 44.9646Z" fill="#3F7EBA"/>
<path d="M903 88.91C903 113.211 883.127 132.985 858.694 132.985C834.261 132.985 814.389 113.216 814.389 88.91C814.389 64.6043 834.261 44.8401 858.694 44.8401C883.127 44.8401 903 64.6093 903 88.91ZM887.177 88.91C887.177 73.2938 874.392 60.5758 858.694 60.5758C842.996 60.5758 830.212 73.2938 830.212 88.91C830.212 104.526 842.996 117.244 858.694 117.244C874.392 117.244 887.177 104.526 887.177 88.91Z" fill="#3F7EBA"/>
<path d="M184.739 91.5941C184.739 141.889 143.757 182.657 93.1988 182.657C42.641 182.657 1.65912 141.884 1.65912 91.5941C1.65912 56.602 21.4918 26.2212 50.5901 10.9735C63.3146 4.30571 77.8112 0.531128 93.1988 0.531128C143.757 0.531128 184.739 41.2996 184.739 91.5941Z" fill="#544B9F"/>
<path d="M69.4767 30.9917C90.9213 34.9903 111.385 16.6154 147.972 18.6222C147.972 18.6222 130.877 2.78194 100.027 0.526152C100.027 0.526152 70.0874 -3.53227 50.1446 10.8938C50.1446 10.8938 48.0272 26.988 69.4717 30.9867L69.4767 30.9917Z" fill="#37C2D9"/>
<path d="M11.6256 50.1186C11.6256 50.1186 38.8166 77.168 107.695 63.6433C157.758 53.8135 176.724 54.2965 176.724 54.2965C176.724 54.2965 167.739 31.7088 147.571 18.5625C147.571 18.5625 129.44 15.8984 99.8164 26.6793C99.8164 26.6793 49.9594 39.6165 50.1396 10.8988C50.1396 10.8988 25.0059 23.1737 11.6205 50.1186H11.6256Z" fill="#37C2D9"/>
<path d="M1.65912 91.5941C1.65912 91.5941 53.3182 78.9707 115.86 106.921C178.396 134.872 183.447 106.921 183.447 106.921C183.447 106.921 189.033 81.1368 176.584 54.6301C176.419 54.7148 153.928 44.7106 107.7 63.6483C107.7 63.6483 50.6001 77.173 11.6305 50.1235C11.6305 50.1235 1.65912 70.8588 1.65912 91.5991V91.5941Z" fill="#3F7EBA"/>
<path d="M13.5678 136.53C13.5678 136.53 34.2865 120.446 78.6972 141.181C123.108 161.917 167.048 146.963 168.645 143.168C168.645 143.168 178.932 133.284 183.642 105.741C183.642 105.741 182.921 115.805 164.801 118.639C164.801 118.639 149.393 123.145 86.8566 94.293C86.8566 94.293 56.4969 84.8267 1.20863 91.1359C1.20863 91.1359 -0.348154 118.803 13.5728 136.525L13.5678 136.53Z" fill="#3F7EBA"/>
<path d="M11.135 47.8329C11.135 47.8329 -0.42823 73.1245 0.0122736 93.8997C0.0122736 93.8997 7.84623 64.5048 56.1915 55.7206C56.1915 55.7206 111.875 42.4001 115.77 66.5713C115.77 66.5713 121.681 78.4428 101.989 117.334C101.989 117.334 94.8307 132.437 80.8898 140.156C80.8898 140.156 46.3553 160.293 37.7504 127.214C37.7504 127.214 32.6997 100.453 86.0807 99.0984C86.0807 99.0984 108.767 67.0344 85.1897 69.7434C85.1897 69.7434 8.68219 71.0978 3.7916 117.165C3.7916 117.165 6.01414 176.328 77.1855 184.908C77.1855 184.908 101.428 187.846 121.631 160.547C129.896 153.521 159.385 106.175 149.423 54.7646C149.423 54.7646 145.414 27.5408 101.068 25.6087C101.068 25.6087 43.8274 20.9676 11.135 47.8379V47.8329Z" fill="white"/>
</svg>
