<svg width="184" height="184" viewBox="0 0 184 184" fill="none" xmlns="http://www.w3.org/2000/svg">
<path d="M184 91.2206C184 141.314 143.182 181.919 92.8262 181.919C42.4705 181.919 1.65247 141.309 1.65247 91.2206C1.65247 56.3685 21.4059 26.1091 50.3878 10.9223C63.0615 4.28122 77.5001 0.521729 92.8262 0.521729C143.182 0.521729 184 41.1272 184 91.2206Z" fill="#544B9F"/>
<path d="M69.1989 30.8604C90.5577 34.8431 110.939 16.5417 147.38 18.5404C147.38 18.5404 130.354 2.76349 99.6267 0.516724C99.6267 0.516724 69.8072 -3.52547 49.9441 10.8429C49.9441 10.8429 47.8351 26.8728 69.1939 30.8555L69.1989 30.8604Z" fill="#37C2D9"/>
<path d="M11.5791 49.9109C11.5791 49.9109 38.6615 76.8522 107.265 63.3815C157.127 53.591 176.018 54.0721 176.018 54.0721C176.018 54.0721 167.069 31.5747 146.981 18.4809C146.981 18.4809 128.923 15.8275 99.4174 26.5653C99.4174 26.5653 49.7597 39.4508 49.9392 10.8479C49.9392 10.8479 24.9059 23.0737 11.5741 49.9109H11.5791Z" fill="#37C2D9"/>
<path d="M1.65247 91.2205C1.65247 91.2205 53.105 78.6476 115.397 106.487C177.683 134.326 182.714 106.487 182.714 106.487C182.714 106.487 188.278 80.8051 175.878 54.4043C175.714 54.4887 153.313 44.5245 107.27 63.3864C107.27 63.3864 50.3978 76.8571 11.584 49.9158C11.584 49.9158 1.65247 70.5681 1.65247 91.2255V91.2205Z" fill="#3F7EBA"/>
<path d="M13.5135 135.977C13.5135 135.977 34.1494 119.957 78.3826 140.61C122.616 161.262 166.38 146.368 167.971 142.589C167.971 142.589 178.217 132.744 182.908 105.311C182.908 105.311 182.19 115.335 164.142 118.157C164.142 118.157 148.796 122.645 86.5093 93.9087C86.5093 93.9087 56.271 84.4802 1.20378 90.7642C1.20378 90.7642 -0.346776 118.321 13.5185 135.972L13.5135 135.977Z" fill="#4960A8"/>
<path d="M11.1954 47.7503C11.1954 47.7503 -0.430554 72.8715 0.0123402 93.5066C0.0123402 93.5066 7.88881 64.3098 56.4964 55.5849C56.4964 55.5849 112.482 42.3541 116.398 66.3624C116.398 66.3624 122.342 78.1539 102.542 116.783C102.542 116.783 95.3453 131.784 81.3287 139.451C81.3287 139.451 46.6068 159.453 37.9553 126.596C37.9553 126.596 32.8771 100.016 86.5478 98.6703C86.5478 98.6703 109.357 66.8224 85.6519 69.5131C85.6519 69.5131 8.7293 70.8584 3.81217 116.615C3.81217 116.615 6.04678 175.379 77.6044 183.901C77.6044 183.901 101.979 186.819 122.291 159.705C130.601 152.726 160.249 105.699 150.234 54.6353C150.234 54.6353 146.203 27.595 101.616 25.6759C101.616 25.6759 44.0652 21.0662 11.1954 47.7553V47.7503Z" fill="white"/>
</svg>
