<svg width="956" height="722" viewBox="0 0 956 722" fill="none" xmlns="http://www.w3.org/2000/svg">
<path d="M128.47 721.391H103.281L91.7683 697.824L64.2385 641.267L36.7088 697.824L25.1959 721.391H0L11.5128 697.824L64.2385 589.421L116.957 697.824L128.47 721.391Z" fill="white"/>
<path d="M240.93 698.018L252.443 721.585H227.254L203.688 673.318L203.147 672.185C199.191 665.4 192.168 660.875 184.077 660.875H161.585V721.578H139.093V589.607H218.623C227.98 589.607 236.433 593.566 242.552 599.978C248.672 606.576 252.45 615.441 252.45 625.245C252.45 639.574 244.353 652.017 232.655 657.676C229.595 659.182 226.357 660.129 222.942 660.502L240.937 698.018H240.93ZM218.616 637.308C220.238 637.308 221.853 636.927 223.291 636.174C227.432 634.288 230.129 629.956 230.129 625.237C230.129 620.898 227.973 617.886 226.713 616.566C225.276 615.06 222.572 613.174 218.616 613.174H161.578V637.494L218.616 637.308Z" fill="white"/>
<path d="M293.115 655.402C293.115 678.783 311.288 697.824 333.602 697.824H374.089V672.565H333.602V648.998H396.581V721.391H333.602C298.878 721.391 270.623 691.793 270.623 655.402C270.623 619.012 298.871 589.421 333.602 589.421H396.581V612.988H333.602C311.288 612.988 293.115 632.029 293.115 655.41V655.402Z" fill="white"/>
<path d="M437.061 625.051V637.308H518.028V660.875H437.061V685.761C437.061 692.359 442.277 697.824 448.574 697.824H540.52V721.391H448.574C429.86 721.391 414.747 705.369 414.747 685.761V625.051C414.747 605.443 429.86 589.421 448.574 589.421H540.52V612.988H448.574C442.277 612.988 437.061 618.453 437.061 625.051Z" fill="white"/>
<path d="M684.473 589.607V721.578L661.981 703.476L581.014 638.053V721.57H558.522V589.987L581.014 608.089L661.981 673.512V589.421L684.473 589.607Z" fill="white"/>
<path d="M828.242 589.607V613.174H776.605V721.578H754.113V613.174H702.476V589.607H828.249H828.242Z" fill="white"/>
<path d="M955.993 655.402C955.993 691.785 927.744 721.391 893.014 721.391C858.283 721.391 830.035 691.793 830.035 655.402C830.035 619.012 858.29 589.421 893.021 589.421C927.752 589.421 956 619.019 956 655.402H955.993ZM933.501 655.402C933.501 632.022 915.328 612.98 893.014 612.98C870.7 612.98 852.527 632.022 852.527 655.402C852.527 678.783 870.7 697.824 893.014 697.824C915.328 697.824 933.501 678.783 933.501 655.402Z" fill="white"/>
<path d="M715.683 160.53C698.925 117.686 670.52 80.5128 634.262 52.7658C591.079 19.7141 536.775 0.0191803 477.79 0.0191803C432.225 0.0191803 389.471 11.7709 352.465 32.3499C317.952 51.528 288.453 78.391 266.363 110.558C299.851 87.8848 340.139 74.9226 377.948 67.6186C444.731 54.6972 503.758 59.4169 503.758 59.4169C515.807 59.9337 526.775 61.1171 536.789 62.8309C629.622 78.6494 638.763 139.788 638.763 139.788C639.829 145.256 640.729 150.71 641.477 156.137C650.59 221.696 637.239 283.964 618.501 332.875C601.577 377.066 580.276 410.335 567.244 425.215C564.931 427.854 562.881 429.921 561.164 431.363C517.939 489.034 468.081 497.738 447.155 498.677C457.195 499.86 467.416 500.486 477.79 500.486C556.954 500.486 627.683 465.027 674.411 409.397C695.31 384.52 711.403 355.603 721.306 324.02C728.618 300.707 732.565 275.939 732.565 250.259C732.565 218.636 726.582 188.4 715.683 160.544V160.53Z" fill="white"/>
<path d="M506.334 312.241C509.006 307.032 511.499 301.999 513.84 297.144C554.433 212.937 547.439 180.035 545.278 173.561C545.001 172.717 544.794 172.323 544.794 172.323C533.922 105.703 378.447 142.413 378.447 142.413C350.609 147.405 327.592 154.818 308.576 163.441C248.137 190.834 228.207 230.415 223.097 243.377C223.028 245.662 223 247.947 223 250.246C223 255.02 223.152 259.767 223.415 264.473C224.496 283.474 227.737 301.904 232.902 319.532C232.265 314.594 232.155 311.765 232.155 311.765C234.592 289.173 243.373 270.498 256.128 255.033C290.115 213.848 352.438 195.568 399.18 187.461C433.513 181.504 459.425 181.055 459.425 181.055C470.976 179.749 478.538 181.395 483.177 184.999C504.949 201.906 461.904 261.97 461.904 261.97C450.52 262.256 440.105 262.95 430.535 263.997C314.947 276.551 326.968 339.472 326.968 339.472C329.697 349.849 333.381 358.31 337.743 365.178C359.155 398.937 397.144 394.095 422.322 385.907C437.072 381.106 447.418 375.148 447.418 375.148C486.335 353.875 506.32 312.255 506.32 312.255L506.334 312.241Z" fill="white"/>
</svg>
