<svg width="523" height="164" viewBox="0 0 523 164" fill="none" xmlns="http://www.w3.org/2000/svg">
<path d="M164.292 82.2594C164.292 127.17 127.711 163.577 82.5843 163.577C37.4576 163.577 0.876485 127.166 0.876485 82.2594C0.876485 51.0136 18.5821 23.8854 44.5534 10.2696C55.913 4.31353 68.8534 0.942172 82.5843 0.942172C127.711 0.942172 164.292 37.3484 164.292 82.2594Z" fill="#544B9F"/>
<path d="M61.4098 28.1423C80.5518 31.7115 98.8175 15.3042 131.474 17.0977C131.474 17.0977 116.216 2.9515 88.6774 0.942165C88.6774 0.942165 61.9519 -2.68093 44.1559 10.2022C44.1559 10.2022 42.2679 24.5777 61.4098 28.1423Z" fill="#877FB2"/>
<path d="M9.77898 45.2239C9.77898 45.2239 34.0474 69.3763 95.5338 57.3023C140.218 48.5233 157.151 48.9548 157.151 48.9548C157.151 48.9548 149.129 28.7851 131.13 17.0483C131.13 17.0483 114.947 14.6659 88.5058 24.2945C88.5058 24.2945 44.0023 35.847 44.1649 10.2022C44.1649 10.2022 21.7303 21.1658 9.7835 45.2239H9.77898Z" fill="#877FB2"/>
<path d="M0.876485 82.2594C0.876485 82.2594 46.9879 70.9856 102.81 95.9471C158.633 120.904 163.14 95.9471 163.14 95.9471C163.14 95.9471 168.127 72.923 157.016 49.2515C156.867 49.3279 136.79 40.3961 95.5338 57.3023C95.5338 57.3023 44.5669 69.3808 9.77898 45.2239C9.77898 45.2239 0.881001 63.7439 0.881001 82.2594L0.876485 82.2594Z" fill="#5D4C99"/>
<path d="M11.5089 122.388C11.5089 122.388 30.0004 108.021 69.6439 126.541C109.283 145.061 148.506 131.702 149.929 128.317C149.929 128.317 159.111 119.488 163.317 94.8952C163.317 94.8952 162.671 103.881 146.501 106.412C146.501 106.412 132.747 110.439 76.9294 84.6733C76.9294 84.6733 49.8289 76.2179 0.479012 81.8548C0.479012 81.8548 -0.912145 106.56 11.5134 122.388H11.5089Z" fill="#48388E"/>
<path d="M6.6534 47.0714C6.6534 47.0714 26.2741 26.5151 66.9745 22.7886C107.679 19.0621 132.567 26.5375 137.801 49.0133C143.036 71.489 132.323 135.545 95.8274 154.865C95.8274 154.865 65.4478 177.377 28.6544 144.005C-8.13893 110.628 8.81692 90.8811 18.5595 80.4658C32.6292 65.025 88.5555 51.0226 89.2781 66.1038L80.6195 86.9298C80.6195 86.9298 40.5696 86.5702 37.033 108.97C40.5696 133.252 67.6294 127.867 69.7929 124.995C69.7929 124.995 86.6629 123.147 99.1562 94.266C99.1562 94.266 122.273 52.96 93.149 46.9635C93.149 46.9635 50.5968 39.506 16.1792 65.016C16.1792 65.016 2.43928 78.3531 0.39771 85.1588C0.39771 85.1588 -2.36202 68.2615 6.65791 47.0759L6.6534 47.0714Z" fill="white"/>
<path d="M229.74 89.2026H220.815L216.732 81.2687L206.975 62.2318L197.219 81.2687L193.136 89.2026H184.211L188.294 81.2687L206.975 44.7771L225.657 81.2687L229.74 89.2026Z" fill="#33215D"/>
<path d="M269.591 81.3316L273.674 89.2656H264.749L256.393 73.0201L256.203 72.638C254.799 70.3545 252.314 68.8307 249.446 68.8307H241.474V89.2656H233.502V44.8446H261.687C265.002 44.8446 268.001 46.1751 270.169 48.3328C272.337 50.5534 273.674 53.5382 273.674 56.8376C273.674 61.6609 270.806 65.8504 266.66 67.7518C265.576 68.2598 264.428 68.5744 263.218 68.7048L269.595 81.3316H269.591ZM261.682 60.8967C262.256 60.8967 262.829 60.7709 263.34 60.5146C264.808 59.8808 265.761 58.4199 265.761 56.8331C265.761 55.3722 264.997 54.3563 264.55 53.9158C264.04 53.4078 263.082 52.774 261.682 52.774H241.47V60.9596L261.682 60.8967Z" fill="#33215D"/>
<path d="M288.078 66.9921C288.078 74.8631 294.519 81.2687 302.423 81.2687H316.768V72.7639H302.423V64.83H324.74V89.1981H302.423C290.115 89.1981 280.106 79.2369 280.106 66.9876C280.106 54.7383 290.115 44.7771 302.423 44.7771H324.74V52.7111H302.423C294.514 52.7111 288.078 59.1211 288.078 66.9876V66.9921Z" fill="#33215D"/>
<path d="M339.09 56.7747V60.9012H367.785V68.8352H339.09V77.2141C339.09 79.4347 340.937 81.2777 343.173 81.2777H375.757V89.2116H343.173C336.543 89.2116 331.186 83.8175 331.186 77.2186V56.7837C331.186 50.1848 336.543 44.7906 343.173 44.7906H375.757V52.7245H343.173C340.942 52.7245 339.09 54.563 339.09 56.7881V56.7747Z" fill="#33215D"/>
<path d="M426.76 44.8446V89.2656L418.788 83.1747L390.093 61.1529V89.2656H382.121V44.9704L390.093 51.0613L418.788 73.083V44.7816L426.76 44.8446Z" fill="#33215D"/>
<path d="M477.709 44.8446V52.7785H459.407V89.2701H451.435V52.7785H433.133V44.8446H477.709Z" fill="#33215D"/>
<path d="M522.98 66.9921C522.98 79.2414 512.971 89.2026 500.663 89.2026C488.355 89.2026 478.346 79.2414 478.346 66.9921C478.346 54.7428 488.355 44.7816 500.663 44.7816C512.971 44.7816 522.98 54.7473 522.98 66.9921ZM515.008 66.9921C515.008 59.1211 508.567 52.7155 500.663 52.7155C492.759 52.7155 486.318 59.1256 486.318 66.9921C486.318 74.8586 492.759 81.2687 500.663 81.2687C508.567 81.2687 515.008 74.8586 515.008 66.9921Z" fill="#33215D"/>
<path d="M204.631 116.605C204.631 117.657 204.446 118.628 204.08 119.527C203.714 120.426 203.199 121.199 202.535 121.86C201.713 122.678 200.747 123.289 199.627 123.698C198.506 124.107 197.093 124.31 195.39 124.31H192.224V133.143H189.057V109.449H195.516C196.944 109.449 198.154 109.57 199.148 109.808C200.137 110.047 201.018 110.42 201.786 110.932C202.694 111.539 203.394 112.29 203.89 113.193C204.387 114.097 204.636 115.234 204.636 116.614L204.631 116.605ZM201.338 116.686C201.338 115.868 201.194 115.158 200.905 114.555C200.616 113.948 200.178 113.458 199.595 113.076C199.085 112.748 198.497 112.51 197.843 112.366C197.188 112.222 196.357 112.15 195.354 112.15H192.219V121.617H194.889C196.167 121.617 197.206 121.505 198.005 121.276C198.805 121.046 199.455 120.682 199.956 120.183C200.458 119.675 200.81 119.14 201.018 118.574C201.226 118.012 201.329 117.378 201.329 116.681L201.338 116.686Z" fill="#48388E"/>
<path d="M226.732 123.627C226.732 125.344 226.542 126.845 226.163 128.122C225.783 129.398 225.164 130.464 224.302 131.313C223.48 132.118 222.522 132.707 221.424 133.08C220.327 133.453 219.049 133.637 217.585 133.637C216.122 133.637 214.794 133.439 213.683 133.048C212.572 132.657 211.641 132.077 210.882 131.313C210.02 130.446 209.396 129.394 209.021 128.162C208.642 126.93 208.452 125.42 208.452 123.627V109.449H211.619V123.788C211.619 125.074 211.704 126.085 211.881 126.827C212.057 127.569 212.35 128.243 212.766 128.85C213.236 129.538 213.872 130.059 214.676 130.41C215.48 130.76 216.447 130.936 217.581 130.936C218.714 130.936 219.69 130.765 220.489 130.419C221.289 130.073 221.93 129.551 222.409 128.85C222.825 128.248 223.123 127.555 223.294 126.773C223.471 125.995 223.556 125.024 223.556 123.869V109.453H226.723V123.631L226.732 123.627Z" fill="#48388E"/>
<path d="M247.025 133.143L235.738 111.944V133.143H232.78V109.449H237.689L247.987 128.8V109.449H250.946V133.143H247.025Z" fill="#48388E"/>
<path d="M265.747 112.245V133.138H262.581V112.245H254.076V109.444H274.257V112.245H265.747Z" fill="#48388E"/>
<path d="M294.401 112.168C295.372 113.229 296.113 114.528 296.633 116.066C297.148 117.603 297.41 119.352 297.41 121.303C297.41 123.253 297.148 125.002 296.619 126.548C296.091 128.09 295.354 129.38 294.406 130.405C293.426 131.475 292.265 132.284 290.928 132.824C289.591 133.363 288.064 133.637 286.348 133.637C284.632 133.637 283.15 133.363 281.782 132.81C280.413 132.257 279.248 131.457 278.286 130.405C277.328 129.353 276.587 128.068 276.072 126.539C275.558 125.011 275.296 123.267 275.296 121.303C275.296 119.338 275.553 117.639 276.063 116.106C276.574 114.573 277.319 113.261 278.304 112.168C279.243 111.13 280.409 110.334 281.8 109.781C283.191 109.229 284.708 108.954 286.348 108.954C287.988 108.954 289.587 109.233 290.946 109.79C292.306 110.348 293.457 111.139 294.406 112.168H294.401ZM294.112 121.303C294.112 118.228 293.417 115.854 292.035 114.182C290.648 112.51 288.755 111.674 286.357 111.674C283.959 111.674 282.039 112.51 280.657 114.182C279.275 115.854 278.588 118.228 278.588 121.303C278.588 124.377 279.293 126.791 280.698 128.441C282.102 130.091 283.99 130.913 286.357 130.913C288.724 130.913 290.607 130.091 292.008 128.441C293.408 126.791 294.112 124.413 294.112 121.303Z" fill="#48388E"/>
<path d="M319.727 126.378C319.727 127.299 319.51 128.212 319.081 129.115C318.647 130.019 318.042 130.783 317.265 131.408C316.411 132.086 315.418 132.617 314.284 132.999C313.15 133.381 311.782 133.57 310.183 133.57C308.467 133.57 306.922 133.412 305.553 133.093C304.185 132.774 302.789 132.302 301.371 131.677V127.731H301.597C302.803 128.728 304.194 129.497 305.77 130.037C307.346 130.576 308.828 130.85 310.215 130.85C312.175 130.85 313.701 130.486 314.794 129.753C315.888 129.021 316.434 128.045 316.434 126.827C316.434 125.775 316.177 125.002 315.657 124.503C315.138 124.004 314.356 123.618 313.299 123.343C312.5 123.132 311.633 122.957 310.702 122.817C309.772 122.678 308.783 122.503 307.735 122.291C305.626 121.846 304.058 121.087 303.042 120.008C302.026 118.929 301.515 117.527 301.515 115.8C301.515 113.818 302.355 112.191 304.04 110.923C305.725 109.656 307.861 109.022 310.454 109.022C312.13 109.022 313.661 109.179 315.061 109.498C316.457 109.817 317.694 110.208 318.769 110.676V114.398H318.543C317.636 113.634 316.448 113 314.971 112.497C313.494 111.993 311.985 111.741 310.436 111.741C308.742 111.741 307.378 112.092 306.353 112.793C305.323 113.494 304.808 114.393 304.808 115.499C304.808 116.488 305.065 117.261 305.576 117.823C306.086 118.385 306.99 118.817 308.277 119.113C308.959 119.262 309.93 119.441 311.186 119.653C312.441 119.864 313.507 120.084 314.383 120.305C316.154 120.772 317.486 121.478 318.381 122.422C319.275 123.366 319.722 124.687 319.722 126.382L319.727 126.378Z" fill="#48388E"/>
<path d="M356.443 121.316C356.443 123.469 355.974 125.42 355.03 127.173C354.086 128.922 352.83 130.284 351.263 131.246C350.174 131.916 348.964 132.397 347.627 132.693C346.29 132.99 344.528 133.138 342.342 133.138H336.33V109.444H342.279C344.6 109.444 346.448 109.611 347.821 109.948C349.189 110.28 350.35 110.739 351.299 111.323C352.92 112.33 354.18 113.674 355.088 115.351C355.996 117.028 356.448 119.014 356.448 121.321L356.443 121.316ZM353.133 121.267C353.133 119.41 352.807 117.846 352.157 116.574C351.507 115.301 350.535 114.299 349.248 113.566C348.309 113.036 347.315 112.667 346.258 112.461C345.201 112.254 343.941 112.15 342.469 112.15H339.497V130.437H342.469C343.991 130.437 345.323 130.324 346.457 130.104C347.591 129.879 348.634 129.466 349.582 128.863C350.766 128.113 351.651 127.119 352.243 125.888C352.834 124.656 353.128 123.119 353.128 121.271L353.133 121.267Z" fill="#48388E"/>
<path d="M377.243 133.143H361.556V109.449H377.243V112.249H364.723V118.74H377.243V121.541H364.723V130.342H377.243V133.143Z" fill="#48388E"/>
<path d="M409.352 116.605C409.352 117.657 409.167 118.628 408.801 119.527C408.436 120.426 407.921 121.199 407.257 121.86C406.435 122.678 405.468 123.289 404.348 123.698C403.228 124.107 401.814 124.31 400.111 124.31H396.945V133.143H393.779V109.449H400.238C401.665 109.449 402.875 109.57 403.869 109.808C404.858 110.047 405.739 110.42 406.507 110.932C407.415 111.539 408.115 112.29 408.612 113.193C409.109 114.097 409.357 115.234 409.357 116.614L409.352 116.605ZM406.06 116.686C406.06 115.868 405.915 115.158 405.626 114.555C405.337 113.948 404.903 113.458 404.316 113.076C403.806 112.748 403.223 112.51 402.564 112.366C401.909 112.222 401.078 112.15 400.08 112.15H396.945V121.617H399.614C400.893 121.617 401.931 121.505 402.731 121.276C403.53 121.046 404.181 120.682 404.682 120.183C405.183 119.675 405.536 119.14 405.744 118.574C405.951 118.012 406.055 117.378 406.055 116.681L406.06 116.686Z" fill="#48388E"/>
<path d="M431.498 133.143H428.124L425.789 126.539H415.491L413.156 133.143H409.94L418.607 109.449H422.83L431.498 133.143ZM424.813 123.833L420.64 112.2L416.448 123.833H424.813Z" fill="#48388E"/>
<path d="M454.972 131.39C453.671 131.983 452.252 132.5 450.712 132.94C449.172 133.381 447.682 133.601 446.245 133.601C444.389 133.601 442.691 133.345 441.146 132.837C439.601 132.329 438.282 131.565 437.198 130.545C436.101 129.515 435.251 128.23 434.655 126.688C434.059 125.146 433.761 123.339 433.761 121.271C433.761 117.482 434.872 114.492 437.094 112.303C439.317 110.114 442.37 109.017 446.25 109.017C447.605 109.017 448.987 109.179 450.401 109.503C451.814 109.826 453.336 110.375 454.967 111.148V114.888H454.678C454.348 114.632 453.869 114.299 453.237 113.886C452.605 113.472 451.99 113.126 451.381 112.852C450.645 112.523 449.809 112.249 448.878 112.034C447.948 111.818 446.887 111.705 445.703 111.705C443.038 111.705 440.929 112.555 439.38 114.259C437.831 115.962 437.054 118.268 437.054 121.172C437.054 124.238 437.862 126.62 439.484 128.324C441.105 130.028 443.309 130.877 446.105 130.877C447.13 130.877 448.151 130.778 449.168 130.576C450.184 130.374 451.078 130.113 451.846 129.794V123.986H445.468V121.217H454.981V131.385L454.972 131.39Z" fill="#48388E"/>
<path d="M478.255 112.168C479.226 113.229 479.967 114.528 480.487 116.066C481.001 117.603 481.263 119.352 481.263 121.303C481.263 123.253 481.001 125.002 480.473 126.548C479.945 128.09 479.208 129.38 478.26 130.405C477.28 131.475 476.119 132.284 474.782 132.824C473.445 133.363 471.918 133.637 470.202 133.637C468.486 133.637 467.004 133.363 465.636 132.81C464.267 132.257 463.102 131.457 462.14 130.405C461.182 129.353 460.441 128.068 459.926 126.539C459.411 125.011 459.15 123.267 459.15 121.303C459.15 119.338 459.407 117.639 459.917 116.106C460.428 114.573 461.173 113.261 462.158 112.168C463.097 111.13 464.262 110.334 465.654 109.781C467.045 109.229 468.562 108.954 470.202 108.954C471.842 108.954 473.44 109.233 474.8 109.79C476.16 110.348 477.311 111.139 478.26 112.168H478.255ZM477.966 121.303C477.966 118.228 477.271 115.854 475.889 114.182C474.502 112.51 472.609 111.674 470.211 111.674C467.813 111.674 465.893 112.51 464.511 114.182C463.129 115.854 462.442 118.228 462.442 121.303C462.442 124.377 463.147 126.791 464.551 128.441C465.956 130.091 467.844 130.913 470.211 130.913C472.578 130.913 474.461 130.091 475.861 128.441C477.262 126.791 477.966 124.413 477.966 121.303Z" fill="#48388E"/>
</svg>
