<svg width="528" height="168" viewBox="0 0 528 168" fill="none" xmlns="http://www.w3.org/2000/svg">
<path d="M231.571 87.3373H222.546L218.423 79.2775L208.563 59.9367L198.703 79.2775L194.579 87.3373H185.554L189.678 79.2775L208.563 42.2087L227.447 79.2775L231.571 87.3373Z" fill="#3F7EBA"/>
<path d="M271.856 79.3408L275.979 87.4006H266.955L258.513 70.897L258.319 70.5084C256.901 68.1863 254.389 66.6412 251.485 66.6412H243.427V87.4006H235.369V42.272H263.857C267.208 42.272 270.239 43.6274 272.429 45.8185C274.62 48.0774 275.975 51.1044 275.975 54.4566C275.975 59.3584 273.075 63.6097 268.884 65.5433C267.786 66.0584 266.63 66.3791 265.401 66.5102L271.847 79.3408H271.856ZM263.866 58.5814C264.444 58.5814 265.026 58.4504 265.541 58.1928C267.023 57.5468 267.989 56.0649 267.989 54.4521C267.989 52.9702 267.217 51.9356 266.765 51.4884C266.25 50.9734 265.284 50.3273 263.866 50.3273H243.432V58.6446L263.866 58.5814Z" fill="#3F7EBA"/>
<path d="M290.551 64.7708C290.551 72.7673 297.059 79.2775 305.054 79.2775H319.557V70.6394H305.054V62.5796H327.615V87.3373H305.054C292.615 87.3373 282.493 77.2174 282.493 64.7708C282.493 52.3242 292.61 42.2088 305.054 42.2088H327.615V50.2686H305.054C297.064 50.2686 290.551 56.7787 290.551 64.7753V64.7708Z" fill="#3F7EBA"/>
<path d="M342.114 54.3936V58.5861H371.116V66.6459H342.114V75.1575C342.114 77.4164 343.984 79.2823 346.237 79.2823H379.174V87.3421H346.237C339.535 87.3421 334.119 81.862 334.119 75.1575V54.3981C334.119 47.6937 339.535 42.2135 346.237 42.2135H379.174V50.2733H346.237C343.984 50.2733 342.114 52.1437 342.114 54.3981V54.3936Z" fill="#3F7EBA"/>
<path d="M430.741 42.272V87.4006L422.683 81.2112L393.681 58.8389V87.4006H385.623V42.3985L393.681 48.5879L422.683 70.9602V42.2088L430.741 42.272Z" fill="#3F7EBA"/>
<path d="M482.236 42.272V50.3318H463.736V87.4006H455.678V50.3318H437.177V42.272H482.236Z" fill="#3F7EBA"/>
<path d="M528 64.7708C528 77.2129 517.883 87.3373 505.439 87.3373C492.995 87.3373 482.878 77.2174 482.878 64.7708C482.878 52.3242 492.995 42.2088 505.439 42.2088C517.883 42.2088 528 52.3287 528 64.7708ZM519.942 64.7708C519.942 56.7787 513.434 50.264 505.439 50.264C497.444 50.264 490.936 56.7742 490.936 64.7708C490.936 72.7673 497.444 79.2775 505.439 79.2775C513.434 79.2775 519.942 72.7673 519.942 64.7708Z" fill="#3F7EBA"/>
<path d="M205.78 123.972C205.78 125.156 205.554 126.199 205.107 127.108C204.66 128.016 204.055 128.761 203.301 129.348C202.406 130.053 201.422 130.555 200.351 130.853C199.281 131.151 197.917 131.3 196.268 131.3H187.826V107.487H194.877C196.616 107.487 197.917 107.55 198.779 107.676C199.642 107.803 200.469 108.069 201.259 108.476C202.131 108.937 202.768 109.524 203.161 110.243C203.554 110.961 203.752 111.824 203.752 112.827C203.752 113.956 203.463 114.918 202.89 115.714C202.316 116.509 201.548 117.146 200.586 117.625V117.751C202.194 118.081 203.463 118.79 204.394 119.87C205.32 120.954 205.785 122.319 205.785 123.972H205.78ZM200.455 113.242C200.455 112.669 200.36 112.181 200.166 111.788C199.976 111.395 199.665 111.074 199.24 110.83C198.739 110.541 198.133 110.364 197.415 110.292C196.702 110.224 195.816 110.188 194.759 110.188H190.988V117.064H195.08C196.069 117.064 196.86 117.015 197.447 116.911C198.034 116.811 198.576 116.599 199.077 116.278C199.579 115.958 199.931 115.546 200.139 115.04C200.347 114.534 200.451 113.934 200.451 113.242H200.455ZM202.488 124.103C202.488 123.145 202.343 122.382 202.054 121.817C201.765 121.252 201.245 120.774 200.487 120.376C199.976 120.109 199.353 119.938 198.626 119.856C197.894 119.775 197.009 119.734 195.965 119.734H190.992V128.594H195.184C196.571 128.594 197.704 128.522 198.59 128.377C199.475 128.233 200.198 127.97 200.762 127.586C201.358 127.171 201.797 126.696 202.072 126.163C202.348 125.63 202.488 124.944 202.488 124.099V124.103Z" fill="#4960A8"/>
<path d="M229.046 131.296H225.672L223.337 124.659H213.039L210.704 131.296H207.488L216.155 107.482H220.378L229.046 131.296ZM222.361 121.94L218.188 110.247L214.001 121.94H222.361Z" fill="#4960A8"/>
<path d="M246.91 131.296L235.622 109.99V131.296H232.664V107.482H237.574L247.872 126.932V107.482H250.83V131.296H246.91Z" fill="#4960A8"/>
<path d="M275.546 129.57C274.959 129.828 274.43 130.067 273.956 130.289C273.482 130.514 272.863 130.749 272.095 130.993C271.445 131.197 270.74 131.368 269.977 131.513C269.213 131.657 268.373 131.73 267.456 131.73C265.731 131.73 264.159 131.486 262.745 131.002C261.332 130.519 260.103 129.76 259.06 128.725C258.034 127.713 257.235 126.426 256.661 124.863C256.088 123.299 255.799 121.483 255.799 119.419C255.799 117.458 256.074 115.705 256.63 114.155C257.185 112.61 257.985 111.305 259.028 110.238C260.04 109.204 261.264 108.413 262.696 107.871C264.127 107.329 265.722 107.053 267.47 107.053C268.748 107.053 270.026 107.207 271.3 107.519C272.574 107.83 273.988 108.373 275.546 109.15V112.908H275.306C273.997 111.811 272.696 111.011 271.404 110.509C270.112 110.008 268.735 109.76 267.262 109.76C266.056 109.76 264.972 109.954 264.01 110.342C263.043 110.731 262.185 111.336 261.426 112.158C260.69 112.958 260.117 113.97 259.706 115.19C259.295 116.41 259.091 117.819 259.091 119.419C259.091 121.018 259.317 122.531 259.769 123.738C260.22 124.944 260.803 125.924 261.521 126.679C262.267 127.469 263.138 128.052 264.137 128.432C265.135 128.811 266.187 129.001 267.294 129.001C268.82 129.001 270.248 128.739 271.58 128.219C272.913 127.695 274.159 126.914 275.32 125.87H275.546V129.579V129.57Z" fill="#4960A8"/>
<path d="M298.794 131.296H295.42L293.084 124.659H282.786L280.451 131.296H277.235L285.903 107.482H290.126L298.794 131.296ZM292.109 121.94L287.935 110.247L283.744 121.94H292.109Z" fill="#4960A8"/>
<path d="M319.548 124.501C319.548 125.427 319.331 126.344 318.902 127.252C318.468 128.16 317.863 128.928 317.086 129.556C316.233 130.238 315.239 130.772 314.105 131.156C312.972 131.54 311.603 131.729 310.004 131.729C308.288 131.729 306.743 131.571 305.374 131.25C304.006 130.93 302.61 130.455 301.192 129.827V125.861H301.418C302.624 126.864 304.015 127.636 305.591 128.178C307.168 128.72 308.649 128.996 310.036 128.996C311.996 128.996 313.523 128.63 314.616 127.894C315.709 127.157 316.255 126.177 316.255 124.953C316.255 123.895 315.998 123.118 315.478 122.617C314.959 122.115 314.178 121.727 313.121 121.451C312.321 121.239 311.454 121.063 310.524 120.923C309.593 120.783 308.604 120.606 307.556 120.394C305.447 119.947 303.879 119.183 302.863 118.099C301.847 117.015 301.337 115.605 301.337 113.87C301.337 111.878 302.177 110.243 303.861 108.969C305.546 107.695 307.683 107.058 310.275 107.058C311.951 107.058 313.482 107.216 314.882 107.536C316.278 107.857 317.515 108.25 318.59 108.72V112.461H318.365C317.457 111.693 316.269 111.056 314.792 110.55C313.315 110.044 311.806 109.791 310.257 109.791C308.563 109.791 307.199 110.143 306.174 110.848C305.144 111.553 304.629 112.456 304.629 113.568C304.629 114.562 304.887 115.339 305.397 115.903C305.907 116.468 306.811 116.902 308.098 117.2C308.78 117.349 309.751 117.53 311.007 117.742C312.262 117.955 313.328 118.176 314.205 118.397C315.975 118.867 317.308 119.576 318.202 120.525C319.096 121.474 319.543 122.802 319.543 124.505L319.548 124.501Z" fill="#4960A8"/>
<path d="M340.32 131.296H324.634V107.482H340.32V110.297H327.8V116.821H340.32V119.635H327.8V128.481H340.32V131.296Z" fill="#4960A8"/>
<path d="M365.199 129.539C363.898 130.135 362.48 130.654 360.939 131.097C359.399 131.54 357.909 131.761 356.472 131.761C354.616 131.761 352.918 131.504 351.373 130.993C349.828 130.483 348.509 129.715 347.425 128.689C346.328 127.655 345.479 126.363 344.882 124.813C344.286 123.263 343.988 121.447 343.988 119.369C343.988 115.56 345.099 112.556 347.321 110.356C349.544 108.156 352.597 107.053 356.477 107.053C357.832 107.053 359.214 107.216 360.628 107.541C362.041 107.867 363.564 108.418 365.194 109.195V112.954H364.905C364.575 112.696 364.097 112.362 363.464 111.946C362.832 111.531 362.218 111.183 361.608 110.907C360.872 110.577 360.036 110.302 359.106 110.085C358.175 109.868 357.114 109.755 355.93 109.755C353.265 109.755 351.156 110.609 349.607 112.321C348.058 114.033 347.281 116.351 347.281 119.27C347.281 122.351 348.089 124.745 349.711 126.457C351.332 128.17 353.536 129.024 356.332 129.024C357.358 129.024 358.378 128.924 359.395 128.721C360.411 128.518 361.305 128.256 362.073 127.935V122.098H355.695V119.315H365.208V129.534L365.199 129.539Z" fill="#4960A8"/>
<path d="M388.659 121.732C388.659 123.458 388.469 124.966 388.089 126.25C387.71 127.533 387.091 128.603 386.229 129.457C385.407 130.266 384.449 130.858 383.351 131.233C382.254 131.608 380.976 131.793 379.512 131.793C378.049 131.793 376.721 131.594 375.61 131.201C374.499 130.808 373.568 130.225 372.809 129.457C371.947 128.585 371.323 127.528 370.948 126.29C370.569 125.052 370.379 123.534 370.379 121.732V107.482H373.546V121.894C373.546 123.186 373.636 124.203 373.808 124.948C373.984 125.694 374.277 126.372 374.693 126.981C375.163 127.673 375.799 128.197 376.603 128.549C377.407 128.901 378.374 129.078 379.503 129.078C380.632 129.078 381.612 128.906 382.412 128.558C383.211 128.21 383.853 127.686 384.332 126.981C384.747 126.376 385.045 125.68 385.217 124.894C385.393 124.113 385.479 123.137 385.479 121.976V107.487H388.645V121.736L388.659 121.732Z" fill="#4960A8"/>
<path d="M414.404 131.296H410.294L402.331 121.827H397.868V131.296H394.702V107.482H401.369C402.809 107.482 404.006 107.577 404.968 107.763C405.926 107.948 406.793 108.282 407.557 108.761C408.419 109.303 409.092 109.99 409.58 110.817C410.063 111.643 410.307 112.692 410.307 113.961C410.307 115.678 409.874 117.114 409.011 118.271C408.148 119.428 406.96 120.3 405.447 120.887L414.404 131.3V131.296ZM407.001 114.182C407.001 113.5 406.884 112.895 406.64 112.366C406.4 111.838 406.003 111.395 405.447 111.029C404.991 110.722 404.445 110.505 403.817 110.383C403.189 110.261 402.448 110.198 401.594 110.198H397.868V119.188H401.066C402.069 119.188 402.94 119.098 403.69 118.926C404.436 118.75 405.072 118.42 405.592 117.941C406.071 117.494 406.427 116.979 406.653 116.396C406.884 115.813 406.996 115.077 406.996 114.182H407.001Z" fill="#4960A8"/>
<path d="M435.222 110.216C436.193 111.282 436.934 112.587 437.453 114.132C437.968 115.678 438.23 117.435 438.23 119.396C438.23 121.357 437.968 123.114 437.439 124.668C436.911 126.218 436.175 127.514 435.226 128.544C434.246 129.62 433.085 130.433 431.748 130.975C430.411 131.517 428.885 131.793 427.168 131.793C425.452 131.793 423.971 131.517 422.602 130.961C421.233 130.406 420.068 129.602 419.106 128.544C418.148 127.487 417.408 126.195 416.893 124.659C416.378 123.123 416.116 121.37 416.116 119.396C416.116 117.421 416.373 115.714 416.884 114.173C417.394 112.633 418.139 111.313 419.124 110.216C420.064 109.172 421.229 108.372 422.62 107.817C424.011 107.261 425.529 106.985 427.168 106.985C428.808 106.985 430.407 107.265 431.766 107.826C433.126 108.386 434.278 109.181 435.226 110.216H435.222ZM434.933 119.396C434.933 116.306 434.237 113.92 432.855 112.24C431.468 110.559 429.576 109.719 427.177 109.719C424.779 109.719 422.859 110.559 421.477 112.24C420.095 113.92 419.409 116.306 419.409 119.396C419.409 122.486 420.113 124.912 421.518 126.57C422.923 128.228 424.811 129.055 427.177 129.055C429.544 129.055 431.428 128.228 432.828 126.57C434.228 124.912 434.933 122.522 434.933 119.396Z" fill="#4960A8"/>
<path d="M460.547 124.501C460.547 125.427 460.33 126.344 459.901 127.252C459.467 128.16 458.862 128.928 458.085 129.556C457.232 130.238 456.238 130.772 455.104 131.156C453.971 131.54 452.602 131.729 451.003 131.729C449.287 131.729 447.742 131.571 446.373 131.25C445.005 130.93 443.609 130.455 442.191 129.827V125.861H442.417C443.623 126.864 445.014 127.636 446.59 128.178C448.167 128.72 449.648 128.996 451.035 128.996C452.995 128.996 454.522 128.63 455.615 127.894C456.708 127.157 457.254 126.177 457.254 124.953C457.254 123.895 456.997 123.118 456.477 122.617C455.958 122.115 455.177 121.727 454.12 121.451C453.32 121.239 452.453 121.063 451.523 120.923C450.592 120.783 449.603 120.606 448.555 120.394C446.446 119.947 444.878 119.183 443.862 118.099C442.846 117.015 442.335 115.605 442.335 113.87C442.335 111.878 443.176 110.243 444.86 108.969C446.545 107.695 448.681 107.058 451.274 107.058C452.95 107.058 454.481 107.216 455.881 107.536C457.277 107.857 458.514 108.25 459.589 108.72V112.461H459.364C458.456 111.693 457.268 111.056 455.791 110.55C454.314 110.044 452.805 109.791 451.256 109.791C449.562 109.791 448.198 110.143 447.173 110.848C446.143 111.553 445.628 112.456 445.628 113.568C445.628 114.562 445.886 115.339 446.396 115.903C446.906 116.468 447.81 116.902 449.097 117.2C449.779 117.349 450.75 117.53 452.006 117.742C453.261 117.955 454.327 118.176 455.204 118.397C456.974 118.867 458.307 119.576 459.201 120.525C460.095 121.474 460.542 122.802 460.542 124.505L460.547 124.501Z" fill="#4960A8"/>
<path d="M166.692 83.0991C166.692 128.729 129.714 165.717 84.0948 165.717C38.4758 165.717 1.49721 128.725 1.49721 83.0991C1.49721 51.3524 19.3925 23.7891 45.6483 9.95553C57.1299 3.90617 70.2104 0.481652 84.0948 0.481652C129.714 0.481652 166.692 37.4691 166.692 83.0991Z" fill="#544B9F"/>
<path d="M62.6899 28.1174C82.0397 31.7452 100.504 15.0744 133.517 16.8951C133.517 16.8951 118.092 2.52393 90.2556 0.477355C90.2556 0.477355 63.241 -3.20467 45.2463 9.88347C45.2463 9.88347 43.3357 24.4851 62.6854 28.1129L62.6899 28.1174Z" fill="#37C2D9"/>
<path d="M10.49 45.4703C10.49 45.4703 35.025 70.0111 97.1753 57.7407C142.347 48.8225 159.461 49.2608 159.461 49.2608C159.461 49.2608 151.354 28.7679 133.156 16.8408C133.156 16.8408 116.796 14.4238 90.066 24.2049C90.066 24.2049 45.0792 35.9422 45.2418 9.8879C45.2418 9.8879 22.5633 21.0243 10.4855 45.4703H10.49Z" fill="#37C2D9"/>
<path d="M1.49721 83.0991C1.49721 83.0991 48.11 71.6464 104.542 97.005C160.97 122.364 165.527 97.005 165.527 97.005C165.527 97.005 170.568 73.6117 159.335 49.5633C159.186 49.6401 138.892 40.5638 97.1798 57.7451C97.1798 57.7451 45.6574 70.0155 10.4946 45.4747C10.4946 45.4747 1.49721 64.2869 1.49721 83.1036V83.0991Z" fill="#3F7EBA"/>
<path d="M12.2425 123.868C12.2425 123.868 30.9373 109.276 71.0098 128.088C111.082 146.9 150.73 133.333 152.171 129.891C152.171 129.891 161.453 120.923 165.703 95.9346C165.703 95.9346 165.053 105.065 148.702 107.636C148.702 107.636 134.8 111.724 78.3721 85.5481C78.3721 85.5481 50.9781 76.9597 1.09069 82.6838C1.09069 82.6838 -0.314019 107.785 12.247 123.864L12.2425 123.868Z" fill="#4960A8"/>
<path d="M10.0473 43.397C10.0473 43.397 -0.386399 66.343 0.0110747 85.1914C0.0110747 85.1914 7.07977 58.5227 50.7025 50.5532C50.7025 50.5532 100.947 38.468 104.461 60.3976C104.461 60.3976 109.795 71.1681 92.0261 106.452C92.0261 106.452 85.5672 120.155 72.9881 127.157C72.9881 127.157 41.8271 145.428 34.0628 115.416C34.0628 115.416 29.5054 91.1369 77.6719 89.908C77.6719 89.908 98.1418 60.8177 76.8679 63.2754C76.8679 63.2754 7.83407 64.5043 3.42121 106.299C3.42121 106.299 5.42665 159.975 69.6457 167.759C69.6457 167.759 91.5202 170.425 109.75 145.658C117.207 139.283 143.815 96.3278 134.827 49.6858C134.827 49.6858 131.209 24.9869 91.195 23.2339C91.195 23.2339 39.5461 19.0233 10.0473 43.4015V43.397Z" fill="white"/>
</svg>
