<svg width="903" height="183" viewBox="0 0 903 183" fill="none" xmlns="http://www.w3.org/2000/svg">
<path d="M175.829 58.7381C169.849 43.1327 159.711 29.5932 146.771 19.4869C131.36 7.44842 111.98 0.274902 90.9296 0.274902C74.6683 0.274902 59.4104 4.55524 46.2037 12.0508C33.8867 19.036 23.3589 28.8204 15.4754 40.5368C27.4267 32.2783 41.8048 27.5571 55.2981 24.8967C79.1315 20.1903 100.197 21.9094 100.197 21.9094C104.497 22.0977 108.412 22.5287 111.985 23.1529C145.116 28.9145 148.378 51.1831 148.378 51.1831C148.758 53.1747 149.08 55.1613 149.347 57.1379C152.599 81.0166 147.834 103.696 141.147 121.511C135.107 137.607 127.505 149.725 122.854 155.145C122.029 156.106 121.297 156.859 120.684 157.384C105.258 178.389 87.4648 181.56 79.9965 181.902C83.5799 182.333 87.2275 182.561 90.9296 182.561C119.182 182.561 144.424 169.645 161.1 149.383C168.558 140.322 174.302 129.79 177.836 118.286C180.446 109.795 181.854 100.774 181.854 91.4202C181.854 79.902 179.719 68.889 175.829 58.7431V58.7381Z" fill="white"/>
<path d="M101.116 113.996C102.07 112.099 102.96 110.266 103.795 108.497C118.282 77.8262 115.786 65.8423 115.015 63.4841C114.916 63.177 114.842 63.0333 114.842 63.0333C110.962 38.7682 55.4761 52.1393 55.4761 52.1393C45.5414 53.9574 37.3267 56.6574 30.5405 59.7983C8.97087 69.7758 1.85843 84.1922 0.0345984 88.9135C0.00988526 89.7458 0 90.578 0 91.4153C0 93.1542 0.0543689 94.8831 0.148279 96.5973C0.533804 103.518 1.69038 110.231 3.53398 116.651C3.30662 114.853 3.26708 113.823 3.26708 113.823C4.13698 105.594 7.27061 98.7919 11.8228 93.1591C23.952 78.1581 46.1938 71.4998 62.8752 68.5472C75.128 66.3773 84.3756 66.2138 84.3756 66.2138C88.4978 65.7382 91.1965 66.3377 92.8522 67.6505C100.622 73.8084 85.2604 95.6857 85.2604 95.6857C81.1975 95.7897 77.4807 96.0424 74.0653 96.4239C32.8141 100.996 37.1043 123.914 37.1043 123.914C38.078 127.694 39.3928 130.776 40.9497 133.277C48.591 145.573 62.1486 143.81 71.1343 140.827C76.3982 139.079 80.0904 136.909 80.0904 136.909C93.9792 129.16 101.111 114.001 101.111 114.001L101.116 113.996Z" fill="white"/>
<path d="M322.183 133.785H304.501L296.421 117.945L277.102 79.9369L257.783 117.945L249.703 133.785H232.021L240.101 117.945L277.102 45.0979L314.103 117.945L322.183 133.785Z" fill="white"/>
<path d="M401.115 118.079L409.195 133.918H391.513L374.973 101.485L374.592 100.721C371.813 96.1578 366.893 93.1214 361.202 93.1214H345.414V133.918H329.626V45.2222H385.442C392.009 45.2222 397.947 47.8858 402.239 52.1918C406.531 56.631 409.186 62.5796 409.186 69.1674C409.186 78.8005 403.505 87.1551 395.292 90.955C393.141 91.9672 390.876 92.5975 388.469 92.855L401.097 118.07L401.115 118.079ZM385.46 77.2823C386.593 77.2823 387.734 77.0248 388.743 76.5187C391.646 75.2491 393.54 72.337 393.54 69.1674C393.54 66.2552 392.026 64.2221 391.141 63.3431C390.132 62.331 388.239 61.0614 385.46 61.0614H345.423V77.4066L385.46 77.2823Z" fill="white"/>
<path d="M437.745 89.4457C437.745 105.16 450.498 117.954 466.162 117.954H494.579V100.979H466.162V85.1396H510.367V133.793H466.162C441.789 133.793 421.957 113.906 421.957 89.4457C421.957 64.9856 441.78 45.1068 466.162 45.1068H510.367V60.9459H466.162C450.506 60.9459 437.745 73.7397 437.745 89.4545V89.4457Z" fill="white"/>
<path d="M538.775 69.043V77.2822H595.6V93.1213H538.775V109.848C538.775 114.288 542.439 117.954 546.855 117.954H611.388V133.793H546.855C533.722 133.793 523.111 123.024 523.111 109.848V69.0519C523.111 55.8763 533.722 45.1068 546.855 45.1068H611.388V60.9459H546.855C542.439 60.9459 538.775 64.6216 538.775 69.0519V69.043Z" fill="white"/>
<path d="M712.427 45.2222V133.909L696.639 121.745L639.814 77.7794V133.909H624.026V45.4797L639.814 57.6431L696.639 101.609V45.1068L712.427 45.2311V45.2222Z" fill="white"/>
<path d="M813.333 45.2222V61.0614H777.084V133.909H761.296V61.0614H725.047V45.2222H813.333Z" fill="white"/>
<path d="M903 89.4457C903 113.897 883.176 133.793 858.795 133.793C834.414 133.793 814.59 113.906 814.59 89.4457C814.59 64.9856 834.414 45.1068 858.795 45.1068C883.176 45.1068 903 64.9945 903 89.4457ZM887.212 89.4457C887.212 73.7397 874.459 60.937 858.795 60.937C843.131 60.937 830.378 73.7308 830.378 89.4457C830.378 105.16 843.131 117.954 858.795 117.954C874.459 117.954 887.212 105.16 887.212 89.4457Z" fill="white"/>
</svg>
